<?xml version="1.0" encoding="UTF-8" standalone="no"?>
<!-- Created with Inkscape (http://www.inkscape.org/) -->

<svg
   xmlns:dc="http://purl.org/dc/elements/1.1/"
   xmlns:cc="http://creativecommons.org/ns#"
   xmlns:rdf="http://www.w3.org/1999/02/22-rdf-syntax-ns#"
   xmlns:svg="http://www.w3.org/2000/svg"
   xmlns="http://www.w3.org/2000/svg"
   xmlns:sodipodi="http://sodipodi.sourceforge.net/DTD/sodipodi-0.dtd"
   xmlns:inkscape="http://www.inkscape.org/namespaces/inkscape"
   width="210mm"
   height="210mm"
   viewBox="0 0 210 210"
   version="1.1"
   id="svg8"
   inkscape:version="0.92.4 (5da689c313, 2019-01-14)"
   sodipodi:docname="Halka_Logo.svg"
   inkscape:export-filename="D:\Users\haruka.dev\Data\雑多\icon\Halka_Logo.png"
   inkscape:export-xdpi="48.380951"
   inkscape:export-ydpi="48.380951">
  <defs
     id="defs2" />
  <sodipodi:namedview
     id="base"
     pagecolor="#ffffff"
     bordercolor="#666666"
     borderopacity="1.0"
     inkscape:pageopacity="0.0"
     inkscape:pageshadow="2"
     inkscape:zoom="0.7"
     inkscape:cx="133.56596"
     inkscape:cy="393.51508"
     inkscape:document-units="mm"
     inkscape:current-layer="layer1"
     showgrid="false"
     inkscape:window-width="1822"
     inkscape:window-height="1051"
     inkscape:window-x="1689"
     inkscape:window-y="-9"
     inkscape:window-maximized="1" />
  <metadata
     id="metadata5">
    <rdf:RDF>
      <cc:Work
         rdf:about="">
        <dc:format>image/svg+xml</dc:format>
        <dc:type
           rdf:resource="http://purl.org/dc/dcmitype/StillImage" />
        <dc:title></dc:title>
      </cc:Work>
    </rdf:RDF>
  </metadata>
  <g
     inkscape:label="レイヤー 1"
     inkscape:groupmode="layer"
     id="layer1"
     transform="translate(0,-87)">
    <path
       style="fill:#37c8b4;fill-opacity:1;stroke-width:0.52500069"
       d="m 36.770171,275.49513 c -0.179681,-0.29072 0.11323,-1.17666 0.650912,-1.96874 0.537681,-0.79209 1.851995,-3.34066 2.920708,-5.66349 1.557704,-3.38566 1.941395,-4.84347 1.934475,-7.35 -0.0127,-4.58302 -1.466254,-6.89174 -5.604595,-8.90167 -4.000132,-1.94281 -5.288215,-3.08294 -6.524419,-5.775 -3.174259,-6.91251 2.471607,-14.43819 10.825141,-14.42943 2.835418,0.003 7.16996,2.10677 8.833034,4.28717 1.486085,1.94834 2.984789,6.92261 2.970389,9.85881 -0.0283,5.7769 -3.203999,14.20687 -7.497081,19.90147 -1.386154,1.83867 -2.414787,3.44852 -2.285857,3.57745 0.128931,0.12893 1.853315,-0.58034 3.831981,-1.57615 9.653557,-4.85838 22.123732,-6.18665 32.396421,-3.45072 3.74218,0.99666 3.51331,2.75942 3.362439,-25.89777 l -0.13621,-25.8708 -15.225043,-0.31329 c -11.857113,-0.24399 -15.921854,-0.50704 -18.375051,-1.18914 -11.895794,-3.30759 -21.32802,-12.74739 -23.905597,-23.92477 -0.906993,-3.93309 -0.784883,-10.65664 0.26694,-14.6978 2.302927,-8.84797 8.915845,-16.76761 17.321319,-20.74402 4.914834,-2.32508 8.919335,-3.12631 15.767364,-3.15476 5.497416,-0.0228 6.633609,0.12758 8.918485,1.18072 4.650143,2.14332 6.569059,4.70461 6.569059,8.76809 0,3.9593 -1.817846,6.39906 -5.431366,7.28953 -3.338249,0.82263 -8.218673,-3.42445 -8.218673,-7.15212 0,-1.70841 -2.047265,-4.69194 -3.79701,-5.53348 -3.179329,-1.52908 -11.777993,2.31548 -16.439266,7.3502 -5.123965,5.53448 -7.588802,11.9449 -7.588802,19.73663 0,13.05121 7.831342,23.9439 19.382435,26.95924 4.679493,1.22155 29.471822,1.40506 30.450865,0.22539 0.454901,-0.54812 0.572322,-9.1286 0.458041,-33.46873 -0.15083,-32.11979 -0.17499,-32.78795 -1.292853,-35.74367 -2.544467,-6.72779 -7.966023,-13.46858 -14.11782,-17.55313 -1.633354,-1.08448 -2.744368,-2.0469 -2.468927,-2.13871 0.275451,-0.0918 2.250196,0.53072 4.388342,1.38341 5.209045,2.07738 9.862868,2.86603 14.487771,2.45517 5.286505,-0.46962 7.608851,-1.25284 21.317838,-7.18954 6.64682,-2.87841 13.52444,-5.57293 15.28359,-5.98781 4.17462,-0.98455 10.32347,-0.97203 14.24446,0.029 3.86354,0.98636 9.48047,3.66876 9.88391,4.72012 0.39556,1.03079 0.0136,0.99182 -3.6539,-0.37275 -2.61934,-0.97457 -4.16097,-1.15127 -9.92597,-1.13766 -7.94882,0.0188 -7.14388,-0.21996 -24.15007,7.16259 -6.35252,2.75768 -12.613159,5.31685 -13.912542,5.68704 -1.303024,0.37123 -5.011214,0.66864 -8.268774,0.66318 -3.248439,-0.005 -5.906266,0.0875 -5.906266,0.20647 0,0.11901 1.202413,1.55361 2.672027,3.18801 2.982029,3.3164 5.147685,6.79808 6.91008,11.10913 1.168903,2.85931 1.182983,3.20264 1.442924,35.17498 0.22954,28.23331 0.361391,32.28748 1.050003,32.28748 0.689232,0 0.804412,-3.74307 0.923032,-29.99549 0.114881,-25.42696 0.251311,-30.09159 0.895753,-30.62643 0.418131,-0.34702 1.006833,-0.47853 1.308233,-0.29225 0.370351,0.22889 0.547992,10.09629 0.547992,30.439 0,26.96325 0.0866,30.13354 0.830442,30.419 0.456742,0.17527 14.466396,0.31867 31.132596,0.31867 22.86833,0 30.45669,-0.15456 30.93214,-0.63 0.47506,-0.47506 0.63,-7.89 0.63,-30.14998 0,-24.93439 -0.11693,-29.63691 -0.75276,-30.27274 -0.41401,-0.41401 -1.89057,-0.90445 -3.28126,-1.08986 -8.4334,-1.12439 -10.99101,-10.2137 -4.27386,-15.18866 3.53036,-2.61471 9.61676,-1.29013 12.22438,2.66041 3.24797,4.92061 3.13183,3.54634 3.42642,40.54585 l 0.26961,33.86248 5.25001,0.2625 c 6.07986,0.30399 7.52974,0.91447 10.68491,4.49892 3.7695,4.28235 5.28294,11.02273 3.73027,16.61334 -1.06899,3.84902 -3.03401,3.11576 -2.05625,-0.76729 1.22094,-4.84874 -1.3762,-11.30765 -5.84993,-14.5484 -2.08146,-1.50778 -2.47703,-1.59657 -7.11277,-1.59657 h -4.90875 v 21.5459 c 0,20.14607 0.0649,21.67245 0.99892,23.49374 2.66576,5.19812 7.12043,6.45084 11.59901,3.26183 1.27883,-0.91061 1.57711,-0.97076 1.57711,-0.31803 0,1.31681 -2.99426,4.3284 -5.97739,6.01197 -2.81453,1.58841 -3.56572,2.68789 -4.26902,6.2483 -0.18537,0.93844 -0.64416,1.70625 -1.01953,1.70625 -0.99317,0 -4.82297,-3.87004 -6.59512,-6.66442 -0.84029,-1.325 -2.02836,-3.91327 -2.64016,-5.75172 -1.0591,-3.18257 -1.11653,-4.44228 -1.19935,-26.30698 l -0.087,-22.96434 H 126.02262 94.522533 v 27.56248 27.56248 l 5.775017,0.15868 c 11.81477,0.32464 23.53451,-2.90683 32.28759,-8.90261 4.58522,-3.14083 4.72502,-3.21666 4.72502,-2.56281 0,0.97614 -4.30355,5.29007 -7.68315,7.7017 -9.79877,6.99223 -23.20022,10.6969 -36.15448,9.99448 -5.415645,-0.29365 -8.077493,-0.83749 -17.85005,-3.64692 -2.961219,-0.8513 -5.255535,-1.05917 -11.812533,-1.07023 -9.615417,-0.0162 -13.692029,0.87115 -21.29388,4.63515 -5.195395,2.57245 -5.270175,2.59622 -5.745906,1.82647 z m 54.864864,-36.22139 c 0,-26.94998 -0.0134,-27.29998 -1.050003,-27.29998 -1.036543,0 -1.050003,0.35 -1.050003,27.29998 0,26.94998 0.0134,27.29998 1.050003,27.29998 1.036543,0 1.050003,-0.35 1.050003,-27.29998 z m -49.89422,3.43549 c 0.797682,-0.96114 0.276401,-1.86049 -1.078383,-1.86049 -1.278184,0 -1.946536,1.51255 -0.947793,2.14495 1.007723,0.63807 1.293874,0.5979 2.026176,-0.28446 z m 25.744152,-85.07294 c 0,-0.43313 -0.222301,-0.7875 -0.494011,-0.7875 -0.662022,0 -1.136154,0.81983 -0.716722,1.23927 0.591251,0.59125 1.210733,0.3601 1.210733,-0.45177 z m 87.582493,-20.38724 c 0.0982,-0.5064 -0.16528,-0.87524 -0.62527,-0.87524 -0.97531,0 -1.56396,0.85582 -1.10235,1.6027 0.47488,0.76837 1.52312,0.32698 1.72762,-0.72746 z"
       id="path828"
       inkscape:connector-curvature="0" />
    <path
       style="fill:#000000;stroke-width:0.52499998"
       d=""
       id="path826"
       inkscape:connector-curvature="0" />
  </g>
</svg>
